<?xml version="1.0" encoding="UTF-8" standalone="no"?>
<!-- Generator: Adobe Illustrator 19.0.0, SVG Export Plug-In . SVG Version: 6.00 Build 0)  -->

<svg
   xmlns:dc="http://purl.org/dc/elements/1.1/"
   xmlns:cc="http://creativecommons.org/ns#"
   xmlns:rdf="http://www.w3.org/1999/02/22-rdf-syntax-ns#"
   xmlns:svg="http://www.w3.org/2000/svg"
   xmlns="http://www.w3.org/2000/svg"
   xmlns:sodipodi="http://sodipodi.sourceforge.net/DTD/sodipodi-0.dtd"
   xmlns:inkscape="http://www.inkscape.org/namespaces/inkscape"
   version="1.1"
   id="Capa_1"
   x="0px"
   y="0px"
   viewBox="0 0 52 52"
   style="enable-background:new 0 0 52 52;"
   xml:space="preserve"
   sodipodi:docname="bill.svg"
   inkscape:version="0.92.4 (33fec40, 2019-01-16)"><metadata
   id="metadata200"><rdf:RDF><cc:Work
       rdf:about=""><dc:format>image/svg+xml</dc:format><dc:type
         rdf:resource="http://purl.org/dc/dcmitype/StillImage" /><dc:title></dc:title></cc:Work></rdf:RDF></metadata><defs
   id="defs198" /><sodipodi:namedview
   pagecolor="#ffffff"
   bordercolor="#666666"
   borderopacity="1"
   objecttolerance="10"
   gridtolerance="10"
   guidetolerance="10"
   inkscape:pageopacity="0"
   inkscape:pageshadow="2"
   inkscape:window-width="1296"
   inkscape:window-height="704"
   id="namedview196"
   showgrid="false"
   inkscape:zoom="10.038462"
   inkscape:cx="0.52177922"
   inkscape:cy="26"
   inkscape:window-x="70"
   inkscape:window-y="27"
   inkscape:window-maximized="1"
   inkscape:current-layer="g163" />
<g
   id="g163">
	<path
   d="M26,0C11.664,0,0,11.663,0,26s11.664,26,26,26s26-11.663,26-26S40.336,0,26,0z M26,50C12.767,50,2,39.233,2,26   S12.767,2,26,2s24,10.767,24,24S39.233,50,26,50z"
   id="path159" />
	
<g
   id="g479"
   transform="matrix(0.06220149,0,0,0.06220149,10.022833,11.07236)"><g
     id="g341">
	<g
   id="g339">
		<path
   id="path337"
   d="m 474.994,246.001 h -74.012 v -236 c 0,-4.044 -2.437,-7.691 -6.173,-9.239 -3.738,-1.549 -8.039,-0.691 -10.898,2.167 L 355.582,31.257 327.255,2.93 c -3.905,-3.905 -10.237,-3.905 -14.143,0 L 284.784,31.258 256.459,2.93 c -3.905,-3.905 -10.237,-3.905 -14.143,0 L 213.988,31.258 185.659,2.93 c -3.905,-3.905 -10.237,-3.905 -14.142,0 L 143.189,31.258 114.863,2.93 c -3.905,-3.905 -10.237,-3.905 -14.143,0 L 72.392,31.258 44.065,2.93 C 40.184,-0.951 33.907,-0.971 29.992,2.875 27.936,4.896 26.939,7.589 27.008,10.264 v 449.738 c 0,28.672 23.326,51.998 51.998,51.998 h 353.976 c 0.002,0 0.003,0 0.005,0 0.003,0 0.006,0 0.009,0 28.672,0 51.998,-23.326 51.998,-51.998 V 256 c 0,-5.523 -4.477,-9.999 -10,-9.999 z M 79.006,492 C 61.361,492 47.007,477.645 47.007,460.001 V 34.156 L 65.321,52.47 c 3.905,3.905 10.237,3.905 14.143,0 L 107.792,24.142 136.12,52.47 c 3.905,3.905 10.237,3.905 14.143,0 L 178.591,24.142 206.92,52.47 c 3.905,3.905 10.237,3.905 14.142,0 L 249.39,24.142 277.718,52.47 c 3.905,3.905 10.237,3.905 14.143,0 l 28.328,-28.328 28.328,28.328 c 3.906,3.905 10.238,3.905 14.142,0 L 380.988,34.142 V 256 c 0,0.091 0.011,0.18 0.014,0.271 v 203.73 c 0,12.062 4.14,23.168 11.057,31.999 z m 385.988,-31.999 c 0,17.644 -14.355,31.999 -31.999,31.999 -17.644,0 -31.999,-14.355 -31.999,-31.999 V 266 h 63.998 z"
   inkscape:connector-curvature="0" />
	</g>
</g><g
     id="g347">
	<g
   id="g345">
		<path
   id="path343"
   d="m 213.995,158.855 c -9.925,0 -17.999,-6.914 -17.999,-15.411 0,-8.498 8.075,-15.412 17.999,-15.412 9.925,0 17.999,6.914 17.999,15.412 0,5.523 4.477,10 10,10 5.523,0 10,-4.477 10,-10 0,-16.301 -11.884,-30.055 -27.999,-34.157 v -6.774 c 0,-5.523 -4.477,-10 -10,-10 -5.523,0 -10,4.477 -10,10 v 6.774 c -16.116,4.102 -27.999,17.857 -27.999,34.157 0,19.525 17.047,35.41 37.999,35.41 9.925,0 17.999,6.914 17.999,15.412 0,8.498 -8.074,15.411 -17.999,15.411 -9.925,0 -17.999,-6.914 -17.999,-15.411 0,-5.523 -4.477,-10 -10,-10 -5.523,0 -10,4.477 -10,10 0,16.301 11.884,30.055 27.999,34.157 v 8.16 c 0,5.523 4.477,10 10,10 5.523,0 10,-4.477 10,-10 v -8.16 c 16.116,-4.102 27.999,-17.856 27.999,-34.157 0,-19.525 -17.047,-35.411 -37.999,-35.411 z"
   inkscape:connector-curvature="0" />
	</g>
</g><g
     id="g353">
	<g
   id="g351">
		<path
   id="path349"
   d="m 314.461,158.856 h -19.49 c -5.523,0 -10,4.477 -10,10 0,5.523 4.477,10 10,10 h 19.49 c 5.523,0 10,-4.477 10,-10 0,-5.523 -4.477,-10 -10,-10 z"
   inkscape:connector-curvature="0" />
	</g>
</g><g
     id="g359">
	<g
   id="g357">
		<path
   id="path355"
   d="m 133.02,158.856 h -19.49 c -5.523,0 -10,4.477 -10,10 0,5.523 4.477,10 10,10 h 19.49 c 5.523,0 10,-4.477 10,-10 0,-5.523 -4.477,-10 -10,-10 z"
   inkscape:connector-curvature="0" />
	</g>
</g><g
     id="g365">
	<g
   id="g363">
		<path
   id="path361"
   d="M 319.52,270.007 H 161.097 c -5.523,0 -10,4.477 -10,10 0,5.523 4.477,10 10,10 H 319.52 c 5.523,0 10,-4.477 10,-10 -10e-4,-5.523 -4.477,-10 -10,-10 z"
   inkscape:connector-curvature="0" />
	</g>
</g><g
     id="g371">
	<g
   id="g369">
		<path
   id="path367"
   d="m 115.538,272.937 c -1.86,-1.86 -4.44,-2.93 -7.07,-2.93 -2.63,0 -5.21,1.07 -7.07,2.93 -1.86,1.86 -2.93,4.44 -2.93,7.07 0,2.63 1.07,5.21 2.93,7.07 1.86,1.86 4.44,2.93 7.07,2.93 2.63,0 5.21,-1.07 7.07,-2.93 1.86,-1.86 2.93,-4.44 2.93,-7.07 0,-2.63 -1.07,-5.21 -2.93,-7.07 z"
   inkscape:connector-curvature="0" />
	</g>
</g><g
     id="g377">
	<g
   id="g375">
		<path
   id="path373"
   d="M 319.52,336.005 H 161.097 c -5.523,0 -10,4.477 -10,10 0,5.523 4.477,10 10,10 H 319.52 c 5.523,0 10,-4.477 10,-10 -10e-4,-5.523 -4.477,-10 -10,-10 z"
   inkscape:connector-curvature="0" />
	</g>
</g><g
     id="g383">
	<g
   id="g381">
		<path
   id="path379"
   d="m 115.538,338.935 c -1.86,-1.86 -4.44,-2.93 -7.07,-2.93 -2.63,0 -5.21,1.07 -7.07,2.93 -1.86,1.86 -2.93,4.44 -2.93,7.07 0,2.63 1.07,5.21 2.93,7.07 1.86,1.86 4.44,2.93 7.07,2.93 2.63,0 5.21,-1.07 7.07,-2.93 1.86,-1.86 2.93,-4.44 2.93,-7.07 0,-2.63 -1.07,-5.21 -2.93,-7.07 z"
   inkscape:connector-curvature="0" />
	</g>
</g><g
     id="g389">
	<g
   id="g387">
		<path
   id="path385"
   d="M 319.52,402.003 H 161.097 c -5.523,0 -10,4.477 -10,10 0,5.523 4.477,10 10,10 H 319.52 c 5.523,0 10,-4.477 10,-10 0,-5.523 -4.477,-10 -10,-10 z"
   inkscape:connector-curvature="0" />
	</g>
</g><g
     id="g395">
	<g
   id="g393">
		<path
   id="path391"
   d="m 115.538,404.933 c -1.86,-1.86 -4.44,-2.93 -7.07,-2.93 -2.63,0 -5.21,1.07 -7.07,2.93 -1.86,1.86 -2.93,4.44 -2.93,7.07 0,2.63 1.07,5.21 2.93,7.07 1.86,1.86 4.44,2.93 7.07,2.93 2.63,0 5.21,-1.07 7.07,-2.93 1.86,-1.86 2.93,-4.44 2.93,-7.07 0,-2.63 -1.07,-5.21 -2.93,-7.07 z"
   inkscape:connector-curvature="0" />
	</g>
</g><g
     id="g397">
</g><g
     id="g399">
</g><g
     id="g401">
</g><g
     id="g403">
</g><g
     id="g405">
</g><g
     id="g407">
</g><g
     id="g409">
</g><g
     id="g411">
</g><g
     id="g413">
</g><g
     id="g415">
</g><g
     id="g417">
</g><g
     id="g419">
</g><g
     id="g421">
</g><g
     id="g423">
</g><g
     id="g425">
</g></g></g>
<g
   id="g165">
</g>
<g
   id="g167">
</g>
<g
   id="g169">
</g>
<g
   id="g171">
</g>
<g
   id="g173">
</g>
<g
   id="g175">
</g>
<g
   id="g177">
</g>
<g
   id="g179">
</g>
<g
   id="g181">
</g>
<g
   id="g183">
</g>
<g
   id="g185">
</g>
<g
   id="g187">
</g>
<g
   id="g189">
</g>
<g
   id="g191">
</g>
<g
   id="g193">
</g>
</svg>