<?xml version="1.0" encoding="UTF-8" standalone="no"?>
<!-- Generator: Adobe Illustrator 19.0.0, SVG Export Plug-In . SVG Version: 6.00 Build 0)  -->

<svg
   xmlns:dc="http://purl.org/dc/elements/1.1/"
   xmlns:cc="http://creativecommons.org/ns#"
   xmlns:rdf="http://www.w3.org/1999/02/22-rdf-syntax-ns#"
   xmlns:svg="http://www.w3.org/2000/svg"
   xmlns="http://www.w3.org/2000/svg"
   xmlns:sodipodi="http://sodipodi.sourceforge.net/DTD/sodipodi-0.dtd"
   xmlns:inkscape="http://www.inkscape.org/namespaces/inkscape"
   version="1.1"
   id="Capa_1"
   x="0px"
   y="0px"
   viewBox="0 0 52 52"
   style="enable-background:new 0 0 52 52;"
   xml:space="preserve"
   sodipodi:docname="requestCircledBW.svg"
   inkscape:version="0.92.4 (33fec40, 2019-01-16)"><metadata
   id="metadata3917"><rdf:RDF><cc:Work
       rdf:about=""><dc:format>image/svg+xml</dc:format><dc:type
         rdf:resource="http://purl.org/dc/dcmitype/StillImage" /><dc:title></dc:title></cc:Work></rdf:RDF></metadata><defs
   id="defs3915" /><sodipodi:namedview
   pagecolor="#ffffff"
   bordercolor="#666666"
   borderopacity="1"
   objecttolerance="10"
   gridtolerance="10"
   guidetolerance="10"
   inkscape:pageopacity="0"
   inkscape:pageshadow="2"
   inkscape:window-width="1296"
   inkscape:window-height="704"
   id="namedview3913"
   showgrid="false"
   inkscape:zoom="25.644166"
   inkscape:cx="22.877428"
   inkscape:cy="16.482557"
   inkscape:window-x="70"
   inkscape:window-y="27"
   inkscape:window-maximized="1"
   inkscape:current-layer="g4418" />
<g
   id="g3880">
	<path
   d="M26,0C11.664,0,0,11.663,0,26s11.664,26,26,26s26-11.663,26-26S40.336,0,26,0z M26,50C12.767,50,2,39.233,2,26   S12.767,2,26,2s24,10.767,24,24S39.233,50,26,50z"
   id="path3876" />
	
<g
   id="g4418"
   transform="matrix(0.06518569,0,0,0.06518569,10.056103,9.1565105)"><g
     id="g4289">
	<g
   id="g4287">
		<path
   id="path4285"
   d="m 211.67,316.199 c 13.614,-13.042 22.116,-31.378 22.116,-51.675 V 225.41 c 6.185,-8.131 9.867,-18.266 9.867,-29.248 v -40.899 c 0,-5.523 -4.477,-10 -10,-10 h -82.415 c -33.443,0 -60.652,27.208 -60.652,60.652 v 58.609 c 0,20.296 8.503,38.633 22.116,51.675 -55.747,1.979 -100.489,47.939 -100.489,104.16 V 502 c 0,5.523 4.477,10 10,10 h 279.946 c 5.523,0 10,-4.477 10,-10 v -81.641 c 0,-56.22 -44.742,-102.18 -100.489,-104.16 z M 151.239,165.264 h 72.415 v 30.899 c 0,15.666 -12.745,28.411 -28.41,28.411 h -84.656 v -1.317 -17.341 h -10e-4 c 0,-22.416 18.236,-40.652 40.652,-40.652 z m -40.652,99.261 v -19.952 h 84.656 c 6.566,0 12.829,-1.32 18.543,-3.699 v 23.651 c 0,28.453 -23.147,51.6 -51.6,51.6 -28.453,0 -51.599,-23.147 -51.599,-51.6 z m 92.16,71.6 -39.094,66.26 -39.094,-66.26 z M 292.16,492 h -0.001 -22.506 v -69.936 c 0,-5.523 -4.477,-10 -10,-10 -5.523,0 -10,4.477 -10,10 V 492 h -172 v -69.936 c 0,-5.523 -4.477,-10 -10,-10 -5.523,0 -10,4.477 -10,10 V 492 H 32.214 v -71.641 c 0,-41.546 30.242,-76.139 69.862,-82.982 l 52.964,89.769 c 1.798,3.048 5.074,4.918 8.613,4.918 3.539,0 6.814,-1.871 8.613,-4.918 l 52.683,-89.29 c 38.314,7.894 67.211,41.888 67.211,82.504 V 492 Z"
   inkscape:connector-curvature="0" />
	</g>
</g><g
     id="g4295">
	<g
   id="g4293">
		<path
   id="path4291"
   d="m 449.786,0 h -56.549 c -5.523,0 -10,4.477 -10,10 0,5.523 4.477,10 10,10 h 56.549 c 16.542,0 30,13.458 30,30 v 133.973 c 0,16.542 -13.458,30 -30,30 h -36.455 c -2.651,0 -5.194,1.053 -7.069,2.927 l -47.239,47.216 v -40.144 c 0,-5.523 -4.477,-10 -10,-10 h -85.237 c -5.523,0 -10,4.477 -10,10 0,5.523 4.477,10 10,10 h 75.237 v 54.277 c 0,4.044 2.436,7.69 6.172,9.238 1.238,0.513 2.537,0.762 3.826,0.762 2.602,0 5.159,-1.016 7.072,-2.928 l 61.38,-61.35 h 32.314 c 27.57,0 50,-22.43 50,-50 V 50 C 499.786,22.43 477.357,0 449.786,0 Z"
   inkscape:connector-curvature="0" />
	</g>
</g><g
     id="g4301">
	<g
   id="g4299">
		<path
   id="path4297"
   d="M 363.856,2.93 C 361.996,1.07 359.416,0 356.786,0 c -2.63,0 -5.21,1.07 -7.07,2.93 -1.86,1.86 -2.93,4.44 -2.93,7.07 0,2.63 1.07,5.21 2.93,7.07 1.86,1.86 4.44,2.93 7.07,2.93 2.63,0 5.21,-1.07 7.07,-2.93 1.86,-1.86 2.93,-4.44 2.93,-7.07 0,-2.63 -1.07,-5.21 -2.93,-7.07 z"
   inkscape:connector-curvature="0" />
	</g>
</g><g
     id="g4307">
	<g
   id="g4305">
		<path
   id="path4303"
   d="m 320.236,0 h -56.45 c -27.57,0 -50,22.43 -50,50 v 55.477 c 0,5.523 4.477,10 10,10 5.523,0 10,-4.477 10,-10 V 50 c 0,-16.542 13.458,-30 30,-30 h 56.45 c 5.523,0 10,-4.477 10,-10 0,-5.523 -4.477,-10 -10,-10 z"
   inkscape:connector-curvature="0" />
	</g>
</g><g
     id="g4319">
	<g
   id="g4317">
		<path
   id="path4315"
   d="m 145.586,261.57 c -1.86,-1.86 -4.43,-2.93 -7.07,-2.93 -2.63,0 -5.21,1.07 -7.07,2.93 -1.86,1.86 -2.93,4.44 -2.93,7.07 0,2.63 1.07,5.21 2.93,7.07 1.86,1.86 4.44,2.93 7.07,2.93 2.64,0 5.21,-1.07 7.07,-2.93 1.87,-1.86 2.93,-4.44 2.93,-7.07 0,-2.63 -1.06,-5.21 -2.93,-7.07 z"
   inkscape:connector-curvature="0" />
	</g>
</g><g
     id="g4325">
	<g
   id="g4323">
		<path
   id="path4321"
   d="m 192.926,261.57 c -1.86,-1.86 -4.44,-2.93 -7.07,-2.93 -2.64,0 -5.21,1.07 -7.07,2.93 -1.87,1.86 -2.93,4.43 -2.93,7.07 0,2.63 1.06,5.21 2.93,7.07 1.86,1.86 4.44,2.93 7.07,2.93 2.63,0 5.21,-1.07 7.07,-2.93 1.86,-1.86 2.93,-4.44 2.93,-7.07 0,-2.63 -1.07,-5.21 -2.93,-7.07 z"
   inkscape:connector-curvature="0" />
	</g>
</g><g
     id="g4331">
	<g
   id="g4329">
		<path
   id="path4327"
   d="m 393.709,89.494 c -1.262,-18.304 -16.017,-33.058 -34.321,-34.32 -10.376,-0.718 -20.274,2.787 -27.854,9.862 -7.473,6.976 -11.76,16.84 -11.76,27.061 0,5.523 4.477,10 10,10 5.523,0 10,-4.477 10,-10 0,-4.767 1.92,-9.186 5.408,-12.441 3.483,-3.251 8.033,-4.856 12.831,-4.53 8.396,0.579 15.165,7.347 15.744,15.744 0.585,8.485 -4.979,15.983 -13.231,17.829 -8.09,1.811 -13.74,8.843 -13.74,17.102 v 20.07 c 0,5.523 4.477,10 10,10 5.523,0 10,-4.477 10,-10 v -18.129 c 16.918,-4.705 28.147,-20.484 26.923,-38.248 z"
   inkscape:connector-curvature="0" />
	</g>
</g><g
     id="g4337">
	<g
   id="g4335">
		<path
   id="path4333"
   d="m 363.856,171.84 c -1.86,-1.86 -4.44,-2.92 -7.07,-2.92 -2.63,0 -5.21,1.06 -7.07,2.92 -1.86,1.87 -2.93,4.44 -2.93,7.08 0,2.63 1.07,5.21 2.93,7.07 1.86,1.86 4.44,2.93 7.07,2.93 2.63,0 5.21,-1.07 7.07,-2.93 1.86,-1.86 2.93,-4.44 2.93,-7.07 0,-2.64 -1.07,-5.21 -2.93,-7.08 z"
   inkscape:connector-curvature="0" />
	</g>
</g><g
     id="g4339">
</g><g
     id="g4341">
</g><g
     id="g4343">
</g><g
     id="g4345">
</g><g
     id="g4347">
</g><g
     id="g4349">
</g><g
     id="g4351">
</g><g
     id="g4353">
</g><g
     id="g4355">
</g><g
     id="g4357">
</g><g
     id="g4359">
</g><g
     id="g4361">
</g><g
     id="g4363">
</g><g
     id="g4365">
</g><g
     id="g4367">
</g></g></g>
<g
   id="g3882">
</g>
<g
   id="g3884">
</g>
<g
   id="g3886">
</g>
<g
   id="g3888">
</g>
<g
   id="g3890">
</g>
<g
   id="g3892">
</g>
<g
   id="g3894">
</g>
<g
   id="g3896">
</g>
<g
   id="g3898">
</g>
<g
   id="g3900">
</g>
<g
   id="g3902">
</g>
<g
   id="g3904">
</g>
<g
   id="g3906">
</g>
<g
   id="g3908">
</g>
<g
   id="g3910">
</g>
</svg>